<mxfile host="app.diagrams.net" modified="2023-11-15T12:36:04.808Z" agent="Mozilla/5.0 (Windows NT 10.0; Win64; x64) AppleWebKit/537.36 (KHTML, like Gecko) Chrome/119.0.0.0 Safari/537.36 Edg/119.0.0.0" version="22.1.1" etag="KZyakX8cmmM96XEZpoYh" type="github">
  <diagram name="Page-1" id="e0aU0vSoq1njVz2Xcq0B">
    <mxGraphModel>
      <root>
        <mxCell id="0" />
        <mxCell id="1" parent="0" />
      </root>
    </mxGraphModel>
  </diagram>
</mxfile>
